# Blender 3.3.1
# www.blender.org
mtllib finish.mtl
o Cube
v -5.068075 0.192671 1.000002
v -5.068075 -0.192671 1.000002
v -5.068076 0.192671 -0.999998
v -5.068076 -0.192671 -0.999998
v 5.068076 0.192671 0.999998
v 5.068076 -0.192671 0.999998
v 5.068075 0.192671 -1.000002
v 5.068075 -0.192671 -1.000002
v -4.471830 0.192671 1.000001
v -3.875587 0.192671 1.000001
v -3.279343 0.192671 1.000001
v -2.683099 0.192671 1.000001
v -2.086854 0.192671 1.000001
v -1.490610 0.192671 1.000000
v -0.894366 0.192671 1.000000
v -0.298122 0.192671 1.000000
v 0.298122 0.192671 1.000000
v 0.894366 0.192671 1.000000
v 1.490610 0.192671 0.999999
v 2.086854 0.192671 0.999999
v 2.683099 0.192671 0.999999
v 3.279343 0.192671 0.999999
v 3.875587 0.192671 0.999999
v 4.471831 0.192671 0.999999
v -4.471831 -0.192671 -0.999999
v -3.875587 -0.192671 -0.999999
v -3.279343 -0.192671 -0.999999
v -2.683099 -0.192671 -0.999999
v -2.086854 -0.192671 -0.999999
v -1.490610 -0.192671 -0.999999
v -0.894366 -0.192671 -1.000000
v -0.298122 -0.192671 -1.000000
v 0.298122 -0.192671 -1.000000
v 0.894366 -0.192671 -1.000000
v 1.490610 -0.192671 -1.000000
v 2.086854 -0.192671 -1.000001
v 2.683099 -0.192671 -1.000001
v 3.279343 -0.192671 -1.000001
v 3.875587 -0.192671 -1.000001
v 4.471830 -0.192671 -1.000001
v -4.471830 -0.192671 1.000001
v -3.875587 -0.192671 1.000001
v -3.279343 -0.192671 1.000001
v -2.683099 -0.192671 1.000001
v -2.086854 -0.192671 1.000001
v -1.490610 -0.192671 1.000000
v -0.894366 -0.192671 1.000000
v -0.298122 -0.192671 1.000000
v 0.298122 -0.192671 1.000000
v 0.894366 -0.192671 1.000000
v 1.490610 -0.192671 1.000000
v 2.086854 -0.192671 0.999999
v 2.683099 -0.192671 0.999999
v 3.279343 -0.192671 0.999999
v 3.875587 -0.192671 0.999999
v 4.471831 -0.192671 0.999999
v -4.471831 0.192671 -0.999999
v -3.875587 0.192671 -0.999999
v -3.279343 0.192671 -0.999999
v -2.683099 0.192671 -0.999999
v -2.086854 0.192671 -0.999999
v -1.490610 0.192671 -1.000000
v -0.894366 0.192671 -1.000000
v -0.298122 0.192671 -1.000000
v 0.298122 0.192671 -1.000000
v 0.894366 0.192671 -1.000000
v 1.490610 0.192671 -1.000000
v 2.086854 0.192671 -1.000001
v 2.683099 0.192671 -1.000001
v 3.279343 0.192671 -1.000001
v 3.875587 0.192671 -1.000001
v 4.471830 0.192671 -1.000001
v -5.068075 0.192671 0.821580
v -5.068076 0.192671 -0.821576
v 5.068076 0.192671 0.821576
v 5.068075 0.192671 -0.821580
v 5.068076 -0.192671 0.821576
v 5.068075 -0.192671 -0.821580
v -5.068075 -0.192671 0.821580
v -5.068076 -0.192671 -0.821576
v 4.471831 -0.192671 0.821577
v 4.471830 -0.192671 -0.821579
v 3.875587 -0.192671 0.821577
v 3.875587 -0.192671 -0.821579
v 3.279343 -0.192671 0.821577
v 3.279343 -0.192671 -0.821579
v 2.683099 -0.192671 0.821577
v 2.683099 -0.192671 -0.821579
v 2.086854 -0.192671 0.821577
v 2.086854 -0.192671 -0.821579
v 1.490610 -0.192671 0.821578
v 1.490610 -0.192671 -0.821579
v 0.894366 -0.192671 0.821578
v 0.894366 -0.192671 -0.821578
v 0.298122 -0.192671 0.821578
v 0.298122 -0.192671 -0.821578
v -0.298122 -0.192671 0.821578
v -0.298122 -0.192671 -0.821578
v -0.894366 -0.192671 0.821578
v -0.894366 -0.192671 -0.821578
v -1.490610 -0.192671 0.821579
v -1.490610 -0.192671 -0.821577
v -2.086854 -0.192671 0.821579
v -2.086854 -0.192671 -0.821577
v -2.683099 -0.192671 0.821579
v -2.683099 -0.192671 -0.821577
v -3.279343 -0.192671 0.821579
v -3.279343 -0.192671 -0.821577
v -3.875587 -0.192671 0.821579
v -3.875587 -0.192671 -0.821577
v -4.471830 -0.192671 0.821580
v -4.471831 -0.192671 -0.821577
v -4.471830 0.192671 0.821579
v -4.471831 0.192671 -0.821577
v -3.875587 0.192671 0.821579
v -3.875587 0.192671 -0.821577
v -3.279343 0.192671 0.821579
v -3.279343 0.192671 -0.821577
v -2.683099 0.192671 0.821579
v -2.683099 0.192671 -0.821577
v -2.086854 0.192671 0.821579
v -2.086854 0.192671 -0.821577
v -1.490610 0.192671 0.821579
v -1.490610 0.192671 -0.821578
v -0.894366 0.192671 0.821578
v -0.894366 0.192671 -0.821578
v -0.298122 0.192671 0.821578
v -0.298122 0.192671 -0.821578
v 0.298122 0.192671 0.821578
v 0.298122 0.192671 -0.821578
v 0.894366 0.192671 0.821578
v 0.894366 0.192671 -0.821578
v 1.490610 0.192671 0.821577
v 1.490610 0.192671 -0.821579
v 2.086854 0.192671 0.821577
v 2.086854 0.192671 -0.821579
v 2.683099 0.192671 0.821577
v 2.683099 0.192671 -0.821579
v 3.279343 0.192671 0.821577
v 3.279343 0.192671 -0.821579
v 3.875587 0.192671 0.821577
v 3.875587 0.192671 -0.821579
v 4.471831 0.192671 0.821577
v 4.471830 0.192671 -0.821580
v 4.471831 2.125723 0.999999
v 5.068076 2.125723 0.999999
v 5.068075 2.125724 -0.821580
v 5.068075 2.125723 -1.000001
v 4.471830 2.125723 -1.000001
v 4.471830 2.125724 -0.821580
v 5.068076 2.125723 0.821577
v 4.471831 2.125723 0.821577
v 4.471831 2.440204 0.999999
v 5.068076 2.440204 0.999999
v 5.068075 2.440205 -0.821580
v 5.068075 2.440204 -1.000001
v 4.471830 2.440204 -1.000001
v 4.471830 2.440205 -0.821580
v 5.068076 2.440204 0.821577
v 4.471831 2.440204 0.821577
v 5.068075 2.398186 -0.000001
v 4.471831 2.398186 -0.000001
v 5.068075 2.398186 -0.000001
v 4.471831 2.398186 -0.000001
v 5.068075 2.712667 -0.000001
v 4.471831 2.712667 -0.000001
v 5.068075 2.712667 -0.000001
v 4.471831 2.712667 -0.000001
vn -1.0000 -0.0000 -0.0000
vn -0.0000 -0.0000 -1.0000
vn 1.0000 -0.0000 -0.0000
vn -0.0000 -1.0000 -0.0000
vn -0.0000 -0.0000 1.0000
vn -0.0000 1.0000 -0.0000
vn -0.0000 0.9492 -0.3148
vn -0.0000 -0.9492 -0.3148
vn -0.0000 0.9492 0.3148
vn -0.0000 -0.9492 0.3148
vt 0.625000 0.500000
vt 0.375000 0.500000
vt 0.625000 0.750000
vt 0.375000 0.750000
vt 0.625000 0.250000
vt 0.125000 0.500000
vt 0.375000 0.250000
vt 0.625000 1.000000
vt 0.625000 0.000000
vt 0.375000 0.000000
vt 0.375000 1.000000
vt 0.125000 0.750000
vt 0.625000 0.485294
vt 0.639706 0.500000
vt 0.625000 0.470588
vt 0.654412 0.500000
vt 0.625000 0.455882
vt 0.669118 0.500000
vt 0.625000 0.441176
vt 0.683824 0.500000
vt 0.625000 0.426471
vt 0.698529 0.500000
vt 0.625000 0.411765
vt 0.713235 0.500000
vt 0.625000 0.397059
vt 0.727941 0.500000
vt 0.625000 0.382353
vt 0.742647 0.500000
vt 0.625000 0.367647
vt 0.757353 0.500000
vt 0.625000 0.352941
vt 0.772059 0.500000
vt 0.625000 0.338235
vt 0.786765 0.500000
vt 0.625000 0.323529
vt 0.801471 0.500000
vt 0.625000 0.308824
vt 0.816176 0.500000
vt 0.625000 0.294118
vt 0.830882 0.500000
vt 0.625000 0.279412
vt 0.845588 0.500000
vt 0.625000 0.264706
vt 0.860294 0.500000
vt 0.360294 0.750000
vt 0.375000 0.764706
vt 0.345588 0.750000
vt 0.375000 0.779412
vt 0.330882 0.750000
vt 0.375000 0.794118
vt 0.316176 0.750000
vt 0.375000 0.808824
vt 0.301471 0.750000
vt 0.375000 0.823529
vt 0.286765 0.750000
vt 0.375000 0.838235
vt 0.272059 0.750000
vt 0.375000 0.852941
vt 0.257353 0.750000
vt 0.375000 0.867647
vt 0.242647 0.750000
vt 0.375000 0.882353
vt 0.227941 0.750000
vt 0.375000 0.897059
vt 0.213235 0.750000
vt 0.375000 0.911765
vt 0.198529 0.750000
vt 0.375000 0.926471
vt 0.183824 0.750000
vt 0.375000 0.941177
vt 0.169118 0.750000
vt 0.375000 0.955882
vt 0.154412 0.750000
vt 0.375000 0.970588
vt 0.139706 0.750000
vt 0.375000 0.985294
vt 0.375000 0.485294
vt 0.360294 0.500000
vt 0.375000 0.470588
vt 0.345588 0.500000
vt 0.375000 0.455882
vt 0.330882 0.500000
vt 0.375000 0.441176
vt 0.316176 0.500000
vt 0.375000 0.426471
vt 0.301471 0.500000
vt 0.375000 0.411765
vt 0.286765 0.500000
vt 0.375000 0.397059
vt 0.272059 0.500000
vt 0.375000 0.382353
vt 0.257353 0.500000
vt 0.375000 0.367647
vt 0.242647 0.500000
vt 0.375000 0.352941
vt 0.227941 0.500000
vt 0.375000 0.338235
vt 0.213235 0.500000
vt 0.375000 0.323529
vt 0.198529 0.500000
vt 0.375000 0.308824
vt 0.183824 0.500000
vt 0.375000 0.294118
vt 0.169118 0.500000
vt 0.375000 0.279412
vt 0.154412 0.500000
vt 0.375000 0.264706
vt 0.139706 0.500000
vt 0.625000 0.764706
vt 0.639706 0.750000
vt 0.625000 0.779412
vt 0.654412 0.750000
vt 0.625000 0.794118
vt 0.669118 0.750000
vt 0.625000 0.808824
vt 0.683824 0.750000
vt 0.625000 0.823529
vt 0.698529 0.750000
vt 0.625000 0.838235
vt 0.713235 0.750000
vt 0.625000 0.852941
vt 0.727941 0.750000
vt 0.625000 0.867647
vt 0.742647 0.750000
vt 0.625000 0.882353
vt 0.757353 0.750000
vt 0.625000 0.897059
vt 0.772059 0.750000
vt 0.625000 0.911765
vt 0.786765 0.750000
vt 0.625000 0.926471
vt 0.801471 0.750000
vt 0.625000 0.941177
vt 0.816176 0.750000
vt 0.625000 0.955882
vt 0.830882 0.750000
vt 0.625000 0.970588
vt 0.845588 0.750000
vt 0.860294 0.750000
vt 0.625000 0.985294
vt 0.625000 0.522303
vt 0.625000 0.727697
vt 0.875000 0.522303
vt 0.625000 0.227697
vt 0.875000 0.727697
vt 0.625000 0.022303
vt 0.375000 0.227697
vt 0.125000 0.522303
vt 0.125000 0.727697
vt 0.375000 0.022303
vt 0.375000 0.522303
vt 0.375000 0.727697
vt 0.139706 0.522303
vt 0.139706 0.727697
vt 0.154412 0.522303
vt 0.154412 0.727697
vt 0.169118 0.522303
vt 0.169118 0.727697
vt 0.183824 0.522303
vt 0.183824 0.727697
vt 0.198529 0.522303
vt 0.198529 0.727697
vt 0.213235 0.522303
vt 0.213235 0.727697
vt 0.227941 0.522303
vt 0.227941 0.727697
vt 0.242647 0.522303
vt 0.242647 0.727697
vt 0.257353 0.522303
vt 0.257353 0.727697
vt 0.272059 0.522303
vt 0.272059 0.727697
vt 0.286765 0.522303
vt 0.286765 0.727697
vt 0.301471 0.522303
vt 0.301471 0.727697
vt 0.316176 0.522303
vt 0.316176 0.727697
vt 0.330882 0.522303
vt 0.330882 0.727697
vt 0.345588 0.522303
vt 0.345588 0.727697
vt 0.360294 0.522303
vt 0.360294 0.727697
vt 0.639706 0.522303
vt 0.639706 0.727697
vt 0.654412 0.522303
vt 0.654412 0.727697
vt 0.669118 0.522303
vt 0.669118 0.727697
vt 0.683823 0.522303
vt 0.683823 0.727697
vt 0.698529 0.522303
vt 0.698529 0.727697
vt 0.713235 0.522303
vt 0.713235 0.727697
vt 0.727941 0.522303
vt 0.727941 0.727697
vt 0.742647 0.522303
vt 0.742647 0.727697
vt 0.757353 0.522303
vt 0.757353 0.727697
vt 0.772059 0.522303
vt 0.772059 0.727697
vt 0.786765 0.522303
vt 0.786765 0.727697
vt 0.801471 0.522303
vt 0.801471 0.727697
vt 0.816176 0.522303
vt 0.816176 0.727697
vt 0.830882 0.522303
vt 0.830882 0.727697
vt 0.845588 0.522303
vt 0.845588 0.727697
vt 0.860294 0.522303
vt 0.860294 0.727697
vt 0.625000 0.264706
vt 0.860294 0.500000
vt 0.625000 0.250000
vt 0.625000 0.022303
vt 0.875000 0.727697
vt 0.625000 1.000000
vt 0.625000 0.000000
vt 0.860294 0.750000
vt 0.625000 0.985294
vt 0.860294 0.727697
vt 0.875000 0.522303
vt 0.625000 0.227697
vt 0.860294 0.522303
vt 0.860294 0.500000
vt 0.625000 0.264706
vt 0.875000 0.500000
vt 0.625000 0.250000
vt 0.875000 0.727697
vt 0.625000 0.022303
vt 0.875000 0.750000
vt 0.625000 0.000000
vt 0.625000 1.000000
vt 0.860294 0.750000
vt 0.625000 0.985294
vt 0.860294 0.727697
vt 0.625000 0.227697
vt 0.875000 0.522303
vt 0.860294 0.522303
vt 0.625000 0.227697
vt 0.875000 0.522303
vt 0.860294 0.522303
vt 0.625000 0.022303
vt 0.875000 0.727697
vt 0.860294 0.727697
vt 0.625000 0.227697
vt 0.875000 0.522303
vt 0.860294 0.522303
vt 0.875000 0.727697
vt 0.625000 0.022303
vt 0.860294 0.727697
s 0
usemtl Material.009
f 24/44/1 152/229/1 143/215/1
f 72/140/2 8/11/2 40/76/2
f 75/144/3 6/7/3 77/147/3
f 80/152/4 25/45/4 112/184/4
f 74/142/1 4/4/1 80/152/1
f 9/13/5 2/2/5 41/77/5
f 5/5/5 56/107/5 6/7/5
f 24/43/5 55/105/5 56/107/5
f 23/41/5 54/103/5 55/105/5
f 22/39/5 53/101/5 54/103/5
f 21/37/5 52/99/5 53/101/5
f 20/35/5 51/97/5 52/99/5
f 19/33/5 50/95/5 51/97/5
f 18/31/5 49/93/5 50/95/5
f 17/29/5 48/91/5 49/93/5
f 16/27/5 47/89/5 48/91/5
f 15/25/5 46/87/5 47/89/5
f 14/23/5 45/85/5 46/87/5
f 13/21/5 44/83/5 45/85/5
f 12/19/5 43/81/5 44/83/5
f 11/17/5 42/79/5 43/81/5
f 10/15/5 41/77/5 42/79/5
f 82/154/4 8/12/4 78/149/4
f 84/156/4 40/75/4 82/154/4
f 86/158/4 39/73/4 84/156/4
f 88/160/4 38/71/4 86/158/4
f 90/162/4 37/69/4 88/160/4
f 92/164/4 36/67/4 90/162/4
f 94/166/4 35/65/4 92/164/4
f 96/168/4 34/63/4 94/166/4
f 98/170/4 33/61/4 96/168/4
f 100/172/4 32/59/4 98/170/4
f 102/174/4 31/57/4 100/172/4
f 104/176/4 30/55/4 102/174/4
f 106/178/4 29/53/4 104/176/4
f 108/180/4 28/51/4 106/178/4
f 110/182/4 27/49/4 108/180/4
f 112/184/4 26/47/4 110/182/4
f 3/3/2 25/46/2 4/4/2
f 57/109/2 26/48/2 25/46/2
f 58/111/2 27/50/2 26/48/2
f 59/113/2 28/52/2 27/50/2
f 60/115/2 29/54/2 28/52/2
f 61/117/2 30/56/2 29/54/2
f 62/119/2 31/58/2 30/56/2
f 63/121/2 32/60/2 31/58/2
f 64/123/2 33/62/2 32/60/2
f 65/125/2 34/64/2 33/62/2
f 66/127/2 35/66/2 34/64/2
f 67/129/2 36/68/2 35/66/2
f 68/131/2 37/70/2 36/68/2
f 69/133/2 38/72/2 37/70/2
f 70/135/2 39/74/2 38/72/2
f 71/137/2 40/76/2 39/74/2
f 114/186/6 3/3/6 74/142/6
f 116/188/6 57/110/6 114/186/6
f 118/190/6 58/112/6 116/188/6
f 120/192/6 59/114/6 118/190/6
f 122/194/6 60/116/6 120/192/6
f 124/196/6 61/118/6 122/194/6
f 126/198/6 62/120/6 124/196/6
f 128/200/6 63/122/6 126/198/6
f 130/202/6 64/124/6 128/200/6
f 132/204/6 65/126/6 130/202/6
f 134/206/6 66/128/6 132/204/6
f 136/208/6 67/130/6 134/206/6
f 138/210/6 68/132/6 136/208/6
f 140/212/6 69/134/6 138/210/6
f 142/214/6 70/136/6 140/212/6
f 144/216/6 71/138/6 142/214/6
f 24/44/6 141/213/6 23/42/6
f 143/215/6 142/214/6 141/213/6
f 23/42/6 139/211/6 22/40/6
f 141/213/6 140/212/6 139/211/6
f 22/40/6 137/209/6 21/38/6
f 139/211/6 138/210/6 137/209/6
f 21/38/6 135/207/6 20/36/6
f 137/209/6 136/208/6 135/207/6
f 20/36/6 133/205/6 19/34/6
f 135/207/6 134/206/6 133/205/6
f 19/34/6 131/203/6 18/32/6
f 133/205/6 132/204/6 131/203/6
f 18/32/6 129/201/6 17/30/6
f 131/203/6 130/202/6 129/201/6
f 17/30/6 127/199/6 16/28/6
f 129/201/6 128/200/6 127/199/6
f 16/28/6 125/197/6 15/26/6
f 127/199/6 126/198/6 125/197/6
f 15/26/6 123/195/6 14/24/6
f 125/197/6 124/196/6 123/195/6
f 14/24/6 121/193/6 13/22/6
f 123/195/6 122/194/6 121/193/6
f 13/22/6 119/191/6 12/20/6
f 121/193/6 120/192/6 119/191/6
f 12/20/6 117/189/6 11/18/6
f 119/191/6 118/190/6 117/189/6
f 11/18/6 115/187/6 10/16/6
f 117/189/6 116/188/6 115/187/6
f 10/16/6 113/185/6 9/14/6
f 115/187/6 114/186/6 113/185/6
f 9/14/6 73/141/6 1/1/6
f 113/185/6 74/142/6 73/141/6
f 41/78/4 109/181/4 42/80/4
f 111/183/4 110/182/4 109/181/4
f 42/80/4 107/179/4 43/82/4
f 109/181/4 108/180/4 107/179/4
f 43/82/4 105/177/4 44/84/4
f 107/179/4 106/178/4 105/177/4
f 44/84/4 103/175/4 45/86/4
f 105/177/4 104/176/4 103/175/4
f 45/86/4 101/173/4 46/88/4
f 103/175/4 102/174/4 101/173/4
f 46/88/4 99/171/4 47/90/4
f 101/173/4 100/172/4 99/171/4
f 47/90/4 97/169/4 48/92/4
f 99/171/4 98/170/4 97/169/4
f 48/92/4 95/167/4 49/94/4
f 97/169/4 96/168/4 95/167/4
f 49/94/4 93/165/4 50/96/4
f 95/167/4 94/166/4 93/165/4
f 50/96/4 91/163/4 51/98/4
f 93/165/4 92/164/4 91/163/4
f 51/98/4 89/161/4 52/100/4
f 91/163/4 90/162/4 89/161/4
f 52/100/4 87/159/4 53/102/4
f 89/161/4 88/160/4 87/159/4
f 53/102/4 85/157/4 54/104/4
f 87/159/4 86/158/4 85/157/4
f 54/104/4 83/155/4 55/106/4
f 85/157/4 84/156/4 83/155/4
f 55/106/4 81/153/4 56/108/4
f 83/155/4 82/154/4 81/153/4
f 56/108/4 77/148/4 6/6/4
f 81/153/4 78/149/4 77/148/4
f 1/1/1 79/151/1 2/2/1
f 73/141/1 80/152/1 79/151/1
f 2/2/4 111/183/4 41/78/4
f 79/151/4 112/184/4 111/183/4
f 7/9/3 78/150/3 8/10/3
f 78/150/3 75/144/3 77/147/3
f 5/5/5 145/217/5 24/43/5
f 75/143/6 144/216/6 143/215/6
f 150/226/1 157/239/1 149/224/1
f 145/218/1 160/244/1 152/229/1
f 75/144/3 146/219/3 5/5/3
f 76/145/5 150/226/5 144/216/5
f 72/140/2 148/222/2 7/8/2
f 143/215/2 151/227/2 75/143/2
f 144/216/1 149/224/1 72/139/1
f 76/146/3 148/223/3 147/220/3
f 155/234/6 157/239/6 158/241/6
f 154/232/6 160/244/6 153/230/6
f 147/220/3 156/237/3 155/235/3
f 158/241/7 167/254/7 155/234/7
f 151/228/3 154/233/3 146/219/3
f 149/225/2 156/238/2 148/222/2
f 146/219/5 153/231/5 145/217/5
f 160/244/1 162/247/1 152/229/1
f 162/247/2 165/252/2 161/246/2
f 163/249/5 168/256/5 164/250/5
f 159/242/3 161/245/3 165/251/3
f 152/229/8 161/246/8 151/227/8
f 158/241/1 164/250/1 168/256/1
f 159/243/9 166/253/9 160/244/9
f 155/235/3 163/248/3 147/220/3
f 147/221/10 164/250/10 150/226/10
f 24/44/1 145/218/1 152/229/1
f 72/140/2 7/8/2 8/11/2
f 75/144/3 5/5/3 6/7/3
f 80/152/4 4/4/4 25/45/4
f 74/142/1 3/3/1 4/4/1
f 9/13/5 1/1/5 2/2/5
f 5/5/5 24/43/5 56/107/5
f 24/43/5 23/41/5 55/105/5
f 23/41/5 22/39/5 54/103/5
f 22/39/5 21/37/5 53/101/5
f 21/37/5 20/35/5 52/99/5
f 20/35/5 19/33/5 51/97/5
f 19/33/5 18/31/5 50/95/5
f 18/31/5 17/29/5 49/93/5
f 17/29/5 16/27/5 48/91/5
f 16/27/5 15/25/5 47/89/5
f 15/25/5 14/23/5 46/87/5
f 14/23/5 13/21/5 45/85/5
f 13/21/5 12/19/5 44/83/5
f 12/19/5 11/17/5 43/81/5
f 11/17/5 10/15/5 42/79/5
f 10/15/5 9/13/5 41/77/5
f 82/154/4 40/75/4 8/12/4
f 84/156/4 39/73/4 40/75/4
f 86/158/4 38/71/4 39/73/4
f 88/160/4 37/69/4 38/71/4
f 90/162/4 36/67/4 37/69/4
f 92/164/4 35/65/4 36/67/4
f 94/166/4 34/63/4 35/65/4
f 96/168/4 33/61/4 34/63/4
f 98/170/4 32/59/4 33/61/4
f 100/172/4 31/57/4 32/59/4
f 102/174/4 30/55/4 31/57/4
f 104/176/4 29/53/4 30/55/4
f 106/178/4 28/51/4 29/53/4
f 108/180/4 27/49/4 28/51/4
f 110/182/4 26/47/4 27/49/4
f 112/184/4 25/45/4 26/47/4
f 3/3/2 57/109/2 25/46/2
f 57/109/2 58/111/2 26/48/2
f 58/111/2 59/113/2 27/50/2
f 59/113/2 60/115/2 28/52/2
f 60/115/2 61/117/2 29/54/2
f 61/117/2 62/119/2 30/56/2
f 62/119/2 63/121/2 31/58/2
f 63/121/2 64/123/2 32/60/2
f 64/123/2 65/125/2 33/62/2
f 65/125/2 66/127/2 34/64/2
f 66/127/2 67/129/2 35/66/2
f 67/129/2 68/131/2 36/68/2
f 68/131/2 69/133/2 37/70/2
f 69/133/2 70/135/2 38/72/2
f 70/135/2 71/137/2 39/74/2
f 71/137/2 72/140/2 40/76/2
f 114/186/6 57/110/6 3/3/6
f 116/188/6 58/112/6 57/110/6
f 118/190/6 59/114/6 58/112/6
f 120/192/6 60/116/6 59/114/6
f 122/194/6 61/118/6 60/116/6
f 124/196/6 62/120/6 61/118/6
f 126/198/6 63/122/6 62/120/6
f 128/200/6 64/124/6 63/122/6
f 130/202/6 65/126/6 64/124/6
f 132/204/6 66/128/6 65/126/6
f 134/206/6 67/130/6 66/128/6
f 136/208/6 68/132/6 67/130/6
f 138/210/6 69/134/6 68/132/6
f 140/212/6 70/136/6 69/134/6
f 142/214/6 71/138/6 70/136/6
f 144/216/6 72/139/6 71/138/6
f 24/44/6 143/215/6 141/213/6
f 143/215/6 144/216/6 142/214/6
f 23/42/6 141/213/6 139/211/6
f 141/213/6 142/214/6 140/212/6
f 22/40/6 139/211/6 137/209/6
f 139/211/6 140/212/6 138/210/6
f 21/38/6 137/209/6 135/207/6
f 137/209/6 138/210/6 136/208/6
f 20/36/6 135/207/6 133/205/6
f 135/207/6 136/208/6 134/206/6
f 19/34/6 133/205/6 131/203/6
f 133/205/6 134/206/6 132/204/6
f 18/32/6 131/203/6 129/201/6
f 131/203/6 132/204/6 130/202/6
f 17/30/6 129/201/6 127/199/6
f 129/201/6 130/202/6 128/200/6
f 16/28/6 127/199/6 125/197/6
f 127/199/6 128/200/6 126/198/6
f 15/26/6 125/197/6 123/195/6
f 125/197/6 126/198/6 124/196/6
f 14/24/6 123/195/6 121/193/6
f 123/195/6 124/196/6 122/194/6
f 13/22/6 121/193/6 119/191/6
f 121/193/6 122/194/6 120/192/6
f 12/20/6 119/191/6 117/189/6
f 119/191/6 120/192/6 118/190/6
f 11/18/6 117/189/6 115/187/6
f 117/189/6 118/190/6 116/188/6
f 10/16/6 115/187/6 113/185/6
f 115/187/6 116/188/6 114/186/6
f 9/14/6 113/185/6 73/141/6
f 113/185/6 114/186/6 74/142/6
f 41/78/4 111/183/4 109/181/4
f 111/183/4 112/184/4 110/182/4
f 42/80/4 109/181/4 107/179/4
f 109/181/4 110/182/4 108/180/4
f 43/82/4 107/179/4 105/177/4
f 107/179/4 108/180/4 106/178/4
f 44/84/4 105/177/4 103/175/4
f 105/177/4 106/178/4 104/176/4
f 45/86/4 103/175/4 101/173/4
f 103/175/4 104/176/4 102/174/4
f 46/88/4 101/173/4 99/171/4
f 101/173/4 102/174/4 100/172/4
f 47/90/4 99/171/4 97/169/4
f 99/171/4 100/172/4 98/170/4
f 48/92/4 97/169/4 95/167/4
f 97/169/4 98/170/4 96/168/4
f 49/94/4 95/167/4 93/165/4
f 95/167/4 96/168/4 94/166/4
f 50/96/4 93/165/4 91/163/4
f 93/165/4 94/166/4 92/164/4
f 51/98/4 91/163/4 89/161/4
f 91/163/4 92/164/4 90/162/4
f 52/100/4 89/161/4 87/159/4
f 89/161/4 90/162/4 88/160/4
f 53/102/4 87/159/4 85/157/4
f 87/159/4 88/160/4 86/158/4
f 54/104/4 85/157/4 83/155/4
f 85/157/4 86/158/4 84/156/4
f 55/106/4 83/155/4 81/153/4
f 83/155/4 84/156/4 82/154/4
f 56/108/4 81/153/4 77/148/4
f 81/153/4 82/154/4 78/149/4
f 1/1/1 73/141/1 79/151/1
f 73/141/1 74/142/1 80/152/1
f 2/2/4 79/151/4 111/183/4
f 79/151/4 80/152/4 112/184/4
f 7/9/3 76/146/3 78/150/3
f 78/150/3 76/146/3 75/144/3
f 5/5/5 146/219/5 145/217/5
f 75/143/6 76/145/6 144/216/6
f 150/226/1 158/241/1 157/239/1
f 145/218/1 153/230/1 160/244/1
f 75/144/3 151/228/3 146/219/3
f 76/145/5 147/221/5 150/226/5
f 72/140/2 149/225/2 148/222/2
f 143/215/2 152/229/2 151/227/2
f 144/216/1 150/226/1 149/224/1
f 76/146/3 7/9/3 148/223/3
f 155/234/6 156/236/6 157/239/6
f 154/232/6 159/243/6 160/244/6
f 147/220/3 148/223/3 156/237/3
f 158/241/7 168/256/7 167/254/7
f 151/228/3 159/242/3 154/233/3
f 149/225/2 157/240/2 156/238/2
f 146/219/5 154/233/5 153/231/5
f 160/244/1 166/253/1 162/247/1
f 162/247/2 166/253/2 165/252/2
f 163/249/5 167/254/5 168/256/5
f 159/242/3 151/228/3 161/245/3
f 152/229/8 162/247/8 161/246/8
f 158/241/1 150/226/1 164/250/1
f 159/243/9 165/252/9 166/253/9
f 155/235/3 167/255/3 163/248/3
f 147/221/10 163/249/10 164/250/10
