# Blender 3.3.1
# www.blender.org
mtllib jump.mtl
o Cube
v -5.068076 0.192671 -1.000000
v -5.068076 -0.192671 -1.000000
v -5.068076 0.192671 1.000000
v -5.068076 -0.192671 1.000000
v -1.978080 0.924338 -1.000000
v -2.116326 0.814572 -1.000000
v -2.243322 0.703767 -1.000000
v -2.363942 0.596949 -1.000000
v -2.481606 0.499561 -1.000000
v -2.600113 0.415908 -1.000000
v -2.723440 0.347459 -1.000000
v -2.854295 0.293684 -1.000000
v -2.994177 0.252641 -1.000000
v -3.140187 0.222327 -1.000000
v -3.287478 0.203117 -1.000000
v -3.438505 0.194631 -1.000000
v -3.597195 0.192754 -1.000000
v -3.760185 0.192671 -1.000000
v -3.923671 0.192671 -1.000000
v -4.087159 0.192671 -1.000000
v -4.250645 0.192671 -1.000000
v -4.414131 0.192671 -1.000000
v -4.577618 0.192671 -1.000000
v -4.741104 0.192671 -1.000000
v -4.904590 0.192671 -1.000000
v -1.750087 0.613681 1.000000
v -1.867798 0.520085 1.000000
v -1.987147 0.415908 1.000000
v -2.111321 0.305965 1.000000
v -2.245568 0.194971 1.000000
v -2.394145 0.090231 1.000000
v -2.556560 0.000127 1.000000
v -2.727948 -0.070356 1.000000
v -2.901672 -0.121433 1.000000
v -3.075730 -0.157586 1.000000
v -3.252581 -0.180641 1.000000
v -3.427952 -0.190567 1.000000
v -3.596202 -0.192586 1.000000
v -3.760185 -0.192671 1.000000
v -3.923671 -0.192671 1.000000
v -4.087159 -0.192671 1.000000
v -4.250645 -0.192671 1.000000
v -4.414131 -0.192671 1.000000
v -4.577618 -0.192671 1.000000
v -4.741104 -0.192671 1.000000
v -4.904590 -0.192671 1.000000
v -1.750087 0.613681 -1.000000
v -1.867798 0.520085 -1.000000
v -1.987147 0.415908 -1.000000
v -2.111321 0.305965 -1.000000
v -2.245568 0.194971 -1.000000
v -2.394145 0.090231 -1.000000
v -2.556560 0.000127 -1.000000
v -2.727949 -0.070355 -1.000000
v -2.901672 -0.121433 -1.000000
v -3.075730 -0.157586 -1.000000
v -3.252581 -0.180641 -1.000000
v -3.427952 -0.190567 -1.000000
v -3.596202 -0.192586 -1.000000
v -3.760185 -0.192671 -1.000000
v -3.923671 -0.192671 -1.000000
v -4.087159 -0.192671 -1.000000
v -4.250645 -0.192671 -1.000000
v -4.414131 -0.192671 -1.000000
v -4.577618 -0.192671 -1.000000
v -4.741104 -0.192671 -1.000000
v -4.904590 -0.192671 -1.000000
v -1.978080 0.924337 1.000000
v -2.116326 0.814572 1.000000
v -2.243322 0.703767 1.000000
v -2.363942 0.596948 1.000000
v -2.481606 0.499561 1.000000
v -2.600113 0.415908 1.000000
v -2.723440 0.347459 1.000000
v -2.854295 0.293684 1.000000
v -2.994177 0.252641 1.000000
v -3.140187 0.222327 1.000000
v -3.287478 0.203117 1.000000
v -3.438505 0.194630 1.000000
v -3.597195 0.192754 1.000000
v -3.760185 0.192671 1.000000
v -3.923671 0.192671 1.000000
v -4.087159 0.192671 1.000000
v -4.250645 0.192671 1.000000
v -4.414131 0.192671 1.000000
v -4.577618 0.192671 1.000000
v -4.741104 0.192671 1.000000
v -4.904590 0.192671 1.000000
v 5.068076 0.192671 -1.000000
v 5.068076 -0.192671 -1.000000
v 5.068076 0.192671 1.000000
v 5.068076 -0.192671 1.000000
v 1.978080 0.924338 -1.000000
v 2.116326 0.814572 -1.000000
v 2.243322 0.703767 -1.000000
v 2.363942 0.596949 -1.000000
v 2.481606 0.499561 -1.000000
v 2.600113 0.415908 -1.000000
v 2.723440 0.347459 -1.000000
v 2.854295 0.293684 -1.000000
v 2.994177 0.252641 -1.000000
v 3.140187 0.222327 -1.000000
v 3.287478 0.203117 -1.000000
v 3.438505 0.194631 -1.000000
v 3.597195 0.192754 -1.000000
v 3.760185 0.192671 -1.000000
v 3.923671 0.192671 -1.000000
v 4.087159 0.192671 -1.000000
v 4.250645 0.192671 -1.000000
v 4.414131 0.192671 -1.000000
v 4.577618 0.192671 -1.000000
v 4.741104 0.192671 -1.000000
v 4.904590 0.192671 -1.000000
v 1.750087 0.613681 1.000000
v 1.867798 0.520085 1.000000
v 1.987147 0.415908 1.000000
v 2.111321 0.305965 1.000000
v 2.245568 0.194971 1.000000
v 2.394145 0.090231 1.000000
v 2.556560 0.000127 1.000000
v 2.727948 -0.070356 1.000000
v 2.901672 -0.121433 1.000000
v 3.075730 -0.157586 1.000000
v 3.252581 -0.180641 1.000000
v 3.427952 -0.190567 1.000000
v 3.596202 -0.192586 1.000000
v 3.760185 -0.192671 1.000000
v 3.923671 -0.192671 1.000000
v 4.087159 -0.192671 1.000000
v 4.250645 -0.192671 1.000000
v 4.414131 -0.192671 1.000000
v 4.577618 -0.192671 1.000000
v 4.741104 -0.192671 1.000000
v 4.904590 -0.192671 1.000000
v 1.750087 0.613681 -1.000000
v 1.867798 0.520085 -1.000000
v 1.987147 0.415908 -1.000000
v 2.111321 0.305965 -1.000000
v 2.245568 0.194971 -1.000000
v 2.394145 0.090231 -1.000000
v 2.556560 0.000127 -1.000000
v 2.727949 -0.070355 -1.000000
v 2.901672 -0.121433 -1.000000
v 3.075730 -0.157586 -1.000000
v 3.252581 -0.180641 -1.000000
v 3.427952 -0.190567 -1.000000
v 3.596202 -0.192586 -1.000000
v 3.760185 -0.192671 -1.000000
v 3.923671 -0.192671 -1.000000
v 4.087159 -0.192671 -1.000000
v 4.250645 -0.192671 -1.000000
v 4.414131 -0.192671 -1.000000
v 4.577618 -0.192671 -1.000000
v 4.741104 -0.192671 -1.000000
v 4.904590 -0.192671 -1.000000
v 1.978080 0.924337 1.000000
v 2.116326 0.814572 1.000000
v 2.243322 0.703767 1.000000
v 2.363942 0.596948 1.000000
v 2.481606 0.499561 1.000000
v 2.600113 0.415908 1.000000
v 2.723440 0.347459 1.000000
v 2.854295 0.293684 1.000000
v 2.994177 0.252641 1.000000
v 3.140187 0.222327 1.000000
v 3.287478 0.203117 1.000000
v 3.438505 0.194630 1.000000
v 3.597195 0.192754 1.000000
v 3.760185 0.192671 1.000000
v 3.923671 0.192671 1.000000
v 4.087159 0.192671 1.000000
v 4.250645 0.192671 1.000000
v 4.414131 0.192671 1.000000
v 4.577618 0.192671 1.000000
v 4.741104 0.192671 1.000000
v 4.904590 0.192671 1.000000
vn -0.0000 1.0000 -0.0000
vn -0.0000 -0.0000 1.0000
vn -1.0000 -0.0000 -0.0000
vn -0.0000 -0.0000 -1.0000
vn -0.0000 -1.0000 -0.0000
vn 0.0005 -1.0000 -0.0000
vn 0.0120 -0.9999 -0.0000
vn 0.0565 -0.9984 -0.0000
vn 0.1293 -0.9916 -0.0000
vn 0.2034 -0.9791 -0.0000
vn 0.2821 -0.9594 -0.0000
vn 0.3803 -0.9248 -0.0000
vn 0.4851 -0.8744 -0.0000
vn 0.5762 -0.8173 -0.0000
vn 0.6372 -0.7707 -0.0000
vn 0.6629 -0.7487 -0.0000
vn 0.6576 -0.7534 -0.0000
vn 0.6224 -0.7827 -0.0000
vn -0.6218 0.7832 -0.0000
vn -0.6574 0.7535 -0.0000
vn -0.6630 0.7486 -0.0000
vn -0.6376 0.7704 -0.0000
vn -0.5767 0.8170 -0.0000
vn -0.4853 0.8744 -0.0000
vn -0.3801 0.9249 -0.0000
vn -0.2815 0.9595 -0.0000
vn -0.2033 0.9791 -0.0000
vn -0.1293 0.9916 -0.0000
vn -0.0561 0.9984 -0.0000
vn -0.0118 0.9999 -0.0000
vn -0.0005 1.0000 -0.0000
vn 0.8062 0.5917 -0.0000
vn 1.0000 -0.0000 -0.0000
vn -0.0005 -1.0000 -0.0000
vn -0.0120 -0.9999 -0.0000
vn -0.0565 -0.9984 -0.0000
vn -0.1293 -0.9916 -0.0000
vn -0.2034 -0.9791 -0.0000
vn -0.2821 -0.9594 -0.0000
vn -0.3803 -0.9248 -0.0000
vn -0.4851 -0.8744 -0.0000
vn -0.5762 -0.8173 -0.0000
vn -0.6372 -0.7707 -0.0000
vn -0.6629 -0.7487 -0.0000
vn -0.6576 -0.7534 -0.0000
vn -0.6224 -0.7827 -0.0000
vn 0.6218 0.7832 -0.0000
vn 0.6574 0.7535 -0.0000
vn 0.6630 0.7486 -0.0000
vn 0.6376 0.7704 -0.0000
vn 0.5767 0.8170 -0.0000
vn 0.4853 0.8744 -0.0000
vn 0.3801 0.9249 -0.0000
vn 0.2815 0.9595 -0.0000
vn 0.2033 0.9791 -0.0000
vn 0.1293 0.9916 -0.0000
vn 0.0561 0.9984 -0.0000
vn 0.0118 0.9999 -0.0000
vn 0.0005 1.0000 -0.0000
vn -0.8062 0.5917 -0.0000
vt 0.875000 0.500000
vt 0.625000 0.250000
vt 0.375000 0.250000
vt 0.125000 0.500000
vt 0.875000 0.750000
vt 0.625000 1.000000
vt 0.625000 0.000000
vt 0.375000 0.000000
vt 0.125000 0.750000
vt 0.375000 1.000000
vt 0.625000 0.334677
vt 0.790323 0.500000
vt 0.625000 0.330645
vt 0.794355 0.500000
vt 0.625000 0.326613
vt 0.798387 0.500000
vt 0.625000 0.322581
vt 0.802419 0.500000
vt 0.625000 0.318548
vt 0.806452 0.500000
vt 0.625000 0.314516
vt 0.810484 0.500000
vt 0.625000 0.310484
vt 0.814516 0.500000
vt 0.625000 0.306452
vt 0.818548 0.500000
vt 0.625000 0.302419
vt 0.822581 0.500000
vt 0.625000 0.298387
vt 0.826613 0.500000
vt 0.625000 0.294355
vt 0.830645 0.500000
vt 0.625000 0.290323
vt 0.834677 0.500000
vt 0.625000 0.286290
vt 0.838710 0.500000
vt 0.625000 0.282258
vt 0.842742 0.500000
vt 0.625000 0.278226
vt 0.846774 0.500000
vt 0.625000 0.274194
vt 0.850806 0.500000
vt 0.625000 0.270161
vt 0.854839 0.500000
vt 0.625000 0.266129
vt 0.858871 0.500000
vt 0.625000 0.262097
vt 0.862903 0.500000
vt 0.625000 0.258065
vt 0.866935 0.500000
vt 0.625000 0.254032
vt 0.870968 0.500000
vt 0.375000 0.915322
vt 0.209677 0.750000
vt 0.205645 0.750000
vt 0.375000 0.919355
vt 0.201613 0.750000
vt 0.375000 0.923387
vt 0.197581 0.750000
vt 0.375000 0.927419
vt 0.193548 0.750000
vt 0.375000 0.931451
vt 0.189516 0.750000
vt 0.375000 0.935484
vt 0.375000 0.939516
vt 0.185484 0.750000
vt 0.181452 0.750000
vt 0.375000 0.943548
vt 0.177419 0.750000
vt 0.375000 0.947580
vt 0.173387 0.750000
vt 0.375000 0.951613
vt 0.375000 0.955645
vt 0.169355 0.750000
vt 0.165323 0.750000
vt 0.375000 0.959677
vt 0.161290 0.750000
vt 0.375000 0.963709
vt 0.157258 0.750000
vt 0.375000 0.967742
vt 0.153226 0.750000
vt 0.375000 0.971774
vt 0.149194 0.750000
vt 0.375000 0.975806
vt 0.145161 0.750000
vt 0.375000 0.979839
vt 0.141129 0.750000
vt 0.375000 0.983871
vt 0.137097 0.750000
vt 0.375000 0.987903
vt 0.133065 0.750000
vt 0.375000 0.991935
vt 0.129032 0.750000
vt 0.375000 0.995968
vt 0.375000 0.334677
vt 0.209677 0.500000
vt 0.375000 0.330645
vt 0.205645 0.500000
vt 0.375000 0.326613
vt 0.201613 0.500000
vt 0.375000 0.322581
vt 0.197581 0.500000
vt 0.375000 0.318548
vt 0.193548 0.500000
vt 0.375000 0.314516
vt 0.189516 0.500000
vt 0.375000 0.310484
vt 0.185484 0.500000
vt 0.375000 0.306452
vt 0.181452 0.500000
vt 0.375000 0.302419
vt 0.177419 0.500000
vt 0.375000 0.298387
vt 0.173387 0.500000
vt 0.375000 0.294355
vt 0.169355 0.500000
vt 0.375000 0.290323
vt 0.165323 0.500000
vt 0.375000 0.286290
vt 0.161290 0.500000
vt 0.375000 0.282258
vt 0.157258 0.500000
vt 0.375000 0.278226
vt 0.153226 0.500000
vt 0.375000 0.274194
vt 0.149194 0.500000
vt 0.375000 0.270161
vt 0.145161 0.500000
vt 0.375000 0.266129
vt 0.141129 0.500000
vt 0.375000 0.262097
vt 0.137097 0.500000
vt 0.375000 0.258065
vt 0.133065 0.500000
vt 0.375000 0.254032
vt 0.129032 0.500000
vt 0.790323 0.750000
vt 0.625000 0.915322
vt 0.625000 0.919355
vt 0.794355 0.750000
vt 0.625000 0.923387
vt 0.798387 0.750000
vt 0.625000 0.927419
vt 0.802419 0.750000
vt 0.625000 0.931451
vt 0.806452 0.750000
vt 0.625000 0.935484
vt 0.810484 0.750000
vt 0.625000 0.939516
vt 0.814516 0.750000
vt 0.625000 0.943548
vt 0.818548 0.750000
vt 0.625000 0.947580
vt 0.822581 0.750000
vt 0.625000 0.951613
vt 0.826613 0.750000
vt 0.625000 0.955645
vt 0.830645 0.750000
vt 0.625000 0.959677
vt 0.834677 0.750000
vt 0.625000 0.963709
vt 0.838710 0.750000
vt 0.625000 0.967742
vt 0.842742 0.750000
vt 0.625000 0.971774
vt 0.846774 0.750000
vt 0.625000 0.975806
vt 0.850806 0.750000
vt 0.625000 0.979839
vt 0.854839 0.750000
vt 0.625000 0.983871
vt 0.858871 0.750000
vt 0.625000 0.987903
vt 0.862903 0.750000
vt 0.625000 0.991935
vt 0.866935 0.750000
vt 0.625000 0.995968
vt 0.870968 0.750000
vt 0.875000 0.500000
vt 0.625000 0.250000
vt 0.375000 0.250000
vt 0.125000 0.500000
vt 0.875000 0.750000
vt 0.625000 1.000000
vt 0.625000 0.000000
vt 0.375000 0.000000
vt 0.375000 1.000000
vt 0.125000 0.750000
vt 0.625000 0.334677
vt 0.790323 0.500000
vt 0.625000 0.330645
vt 0.794355 0.500000
vt 0.625000 0.326613
vt 0.798387 0.500000
vt 0.625000 0.322581
vt 0.802419 0.500000
vt 0.625000 0.318548
vt 0.806452 0.500000
vt 0.625000 0.314516
vt 0.810484 0.500000
vt 0.625000 0.310484
vt 0.814516 0.500000
vt 0.625000 0.306452
vt 0.818548 0.500000
vt 0.625000 0.302419
vt 0.822581 0.500000
vt 0.625000 0.298387
vt 0.826613 0.500000
vt 0.830645 0.500000
vt 0.625000 0.294355
vt 0.625000 0.290323
vt 0.834677 0.500000
vt 0.625000 0.286290
vt 0.838710 0.500000
vt 0.625000 0.282258
vt 0.842742 0.500000
vt 0.625000 0.278226
vt 0.846774 0.500000
vt 0.625000 0.274194
vt 0.850806 0.500000
vt 0.625000 0.270161
vt 0.854839 0.500000
vt 0.625000 0.266129
vt 0.858871 0.500000
vt 0.625000 0.262097
vt 0.862903 0.500000
vt 0.625000 0.258065
vt 0.866935 0.500000
vt 0.625000 0.254032
vt 0.870968 0.500000
vt 0.375000 0.915322
vt 0.209677 0.750000
vt 0.205645 0.750000
vt 0.375000 0.919355
vt 0.201613 0.750000
vt 0.375000 0.923387
vt 0.197581 0.750000
vt 0.375000 0.927419
vt 0.193548 0.750000
vt 0.375000 0.931451
vt 0.189516 0.750000
vt 0.375000 0.935484
vt 0.185484 0.750000
vt 0.375000 0.939516
vt 0.181452 0.750000
vt 0.375000 0.943548
vt 0.177419 0.750000
vt 0.375000 0.947580
vt 0.173387 0.750000
vt 0.375000 0.951613
vt 0.169355 0.750000
vt 0.375000 0.955645
vt 0.165323 0.750000
vt 0.375000 0.959677
vt 0.161290 0.750000
vt 0.375000 0.963709
vt 0.157258 0.750000
vt 0.375000 0.967742
vt 0.153226 0.750000
vt 0.375000 0.971774
vt 0.149194 0.750000
vt 0.375000 0.975806
vt 0.145161 0.750000
vt 0.375000 0.979839
vt 0.141129 0.750000
vt 0.375000 0.983871
vt 0.137097 0.750000
vt 0.375000 0.987903
vt 0.133065 0.750000
vt 0.375000 0.991935
vt 0.129032 0.750000
vt 0.375000 0.995968
vt 0.375000 0.334677
vt 0.209677 0.500000
vt 0.375000 0.330645
vt 0.205645 0.500000
vt 0.375000 0.326613
vt 0.201613 0.500000
vt 0.375000 0.322581
vt 0.197581 0.500000
vt 0.375000 0.318548
vt 0.193548 0.500000
vt 0.189516 0.500000
vt 0.375000 0.314516
vt 0.375000 0.310484
vt 0.185484 0.500000
vt 0.375000 0.306452
vt 0.181452 0.500000
vt 0.375000 0.302419
vt 0.177419 0.500000
vt 0.375000 0.298387
vt 0.173387 0.500000
vt 0.375000 0.294355
vt 0.169355 0.500000
vt 0.375000 0.290323
vt 0.165323 0.500000
vt 0.375000 0.286290
vt 0.161290 0.500000
vt 0.375000 0.282258
vt 0.157258 0.500000
vt 0.375000 0.278226
vt 0.153226 0.500000
vt 0.375000 0.274194
vt 0.149194 0.500000
vt 0.375000 0.270161
vt 0.145161 0.500000
vt 0.375000 0.266129
vt 0.141129 0.500000
vt 0.375000 0.262097
vt 0.137097 0.500000
vt 0.375000 0.258065
vt 0.133065 0.500000
vt 0.129032 0.500000
vt 0.375000 0.254032
vt 0.790323 0.750000
vt 0.625000 0.915322
vt 0.625000 0.919355
vt 0.794355 0.750000
vt 0.625000 0.923387
vt 0.798387 0.750000
vt 0.625000 0.927419
vt 0.802419 0.750000
vt 0.625000 0.931451
vt 0.806452 0.750000
vt 0.625000 0.935484
vt 0.810484 0.750000
vt 0.625000 0.939516
vt 0.814516 0.750000
vt 0.625000 0.943548
vt 0.818548 0.750000
vt 0.625000 0.947580
vt 0.822581 0.750000
vt 0.625000 0.951613
vt 0.826613 0.750000
vt 0.625000 0.955645
vt 0.830645 0.750000
vt 0.625000 0.959677
vt 0.834677 0.750000
vt 0.625000 0.963709
vt 0.838710 0.750000
vt 0.625000 0.967742
vt 0.842742 0.750000
vt 0.625000 0.971774
vt 0.846774 0.750000
vt 0.625000 0.975806
vt 0.850806 0.750000
vt 0.625000 0.979839
vt 0.854839 0.750000
vt 0.625000 0.983871
vt 0.858871 0.750000
vt 0.625000 0.987903
vt 0.862903 0.750000
vt 0.625000 0.991935
vt 0.866935 0.750000
vt 0.625000 0.995968
vt 0.870968 0.750000
s 0
usemtl Material.003
f 25/52/1 3/5/1 88/178/1
f 88/177/2 4/10/2 46/94/2
f 3/7/3 2/3/3 4/8/3
f 1/2/4 67/135/4 2/3/4
f 25/51/4 66/133/4 67/135/4
f 24/49/4 65/131/4 66/133/4
f 23/47/4 64/129/4 65/131/4
f 22/45/4 63/127/4 64/129/4
f 21/43/4 62/125/4 63/127/4
f 20/41/4 61/123/4 62/125/4
f 19/39/4 60/121/4 61/123/4
f 60/121/4 17/35/4 59/119/4
f 59/119/4 16/33/4 58/117/4
f 58/117/4 15/31/4 57/115/4
f 15/31/4 56/113/4 57/115/4
f 56/113/4 13/27/4 55/111/4
f 55/111/4 12/25/4 54/109/4
f 54/109/4 11/23/4 53/107/4
f 11/23/4 52/105/4 53/107/4
f 10/21/4 51/103/4 52/105/4
f 9/19/4 50/101/4 51/103/4
f 8/17/4 49/99/4 50/101/4
f 7/15/4 48/97/4 49/99/4
f 6/13/4 47/95/4 48/97/4
f 2/4/5 46/93/5 4/9/5
f 66/134/5 46/93/5 67/136/5
f 65/132/5 45/91/5 66/134/5
f 64/130/5 44/89/5 65/132/5
f 63/128/5 43/87/5 64/130/5
f 62/126/5 42/85/5 63/128/5
f 61/124/5 41/83/5 62/126/5
f 60/122/5 40/81/5 61/124/5
f 59/120/6 39/79/6 60/122/6
f 58/118/7 38/77/7 59/120/7
f 57/116/8 37/75/8 58/118/8
f 56/114/9 36/74/9 57/116/9
f 55/112/10 35/71/10 56/114/10
f 54/110/11 34/69/11 55/112/11
f 53/108/12 33/67/12 54/110/12
f 53/108/13 31/63/13 32/66/13
f 51/104/14 31/63/14 52/106/14
f 50/102/15 30/61/15 51/104/15
f 49/100/16 29/59/16 50/102/16
f 48/98/17 28/57/17 49/100/17
f 47/96/18 27/55/18 48/98/18
f 26/53/2 69/139/2 27/56/2
f 27/56/2 70/141/2 28/58/2
f 28/58/2 71/143/2 29/60/2
f 29/60/2 72/145/2 30/62/2
f 30/62/2 73/147/2 31/64/2
f 31/64/2 74/149/2 32/65/2
f 74/149/2 33/68/2 32/65/2
f 75/151/2 34/70/2 33/68/2
f 76/153/2 35/72/2 34/70/2
f 35/72/2 78/157/2 36/73/2
f 78/157/2 37/76/2 36/73/2
f 79/159/2 38/78/2 37/76/2
f 80/161/2 39/80/2 38/78/2
f 81/163/2 40/82/2 39/80/2
f 82/165/2 41/84/2 40/82/2
f 83/167/2 42/86/2 41/84/2
f 84/169/2 43/88/2 42/86/2
f 85/171/2 44/90/2 43/88/2
f 86/173/2 45/92/2 44/90/2
f 87/175/2 46/94/2 45/92/2
f 6/14/19 68/137/19 5/12/19
f 7/16/20 69/140/20 6/14/20
f 8/18/21 70/142/21 7/16/21
f 9/20/22 71/144/22 8/18/22
f 10/22/23 72/146/23 9/20/23
f 11/24/24 73/148/24 10/22/24
f 12/26/25 74/150/25 11/24/25
f 13/28/26 75/152/26 12/26/26
f 14/30/27 76/154/27 13/28/27
f 14/30/28 78/158/28 77/156/28
f 16/34/29 78/158/29 15/32/29
f 17/36/30 79/160/30 16/34/30
f 18/38/31 80/162/31 17/36/31
f 19/40/1 81/164/1 18/38/1
f 20/42/1 82/166/1 19/40/1
f 21/44/1 83/168/1 20/42/1
f 22/46/1 84/170/1 21/44/1
f 23/48/1 85/172/1 22/46/1
f 24/50/1 86/174/1 23/48/1
f 25/52/1 87/176/1 24/50/1
f 5/12/32 26/54/32 47/96/32
f 113/230/1 91/183/1 89/179/1
f 92/187/2 176/355/2 134/272/2
f 90/181/33 91/185/33 92/186/33
f 155/314/4 89/180/4 90/181/4
f 154/311/4 113/229/4 155/314/4
f 153/309/4 112/227/4 154/311/4
f 152/307/4 111/225/4 153/309/4
f 151/305/4 110/223/4 152/307/4
f 150/303/4 109/221/4 151/305/4
f 149/301/4 108/219/4 150/303/4
f 148/299/4 107/217/4 149/301/4
f 148/299/4 105/213/4 106/215/4
f 147/297/4 104/211/4 105/213/4
f 146/295/4 103/210/4 104/211/4
f 144/291/4 103/210/4 145/293/4
f 144/291/4 101/205/4 102/207/4
f 143/289/4 100/203/4 101/205/4
f 142/287/4 99/201/4 100/203/4
f 140/284/4 99/201/4 141/285/4
f 139/281/4 98/199/4 140/284/4
f 138/279/4 97/197/4 139/281/4
f 137/277/4 96/195/4 138/279/4
f 136/275/4 95/193/4 137/277/4
f 135/273/4 94/191/4 136/275/4
f 90/182/5 134/271/5 155/313/5
f 134/271/5 154/312/5 155/313/5
f 133/269/5 153/310/5 154/312/5
f 132/267/5 152/308/5 153/310/5
f 131/265/5 151/306/5 152/308/5
f 130/263/5 150/304/5 151/306/5
f 129/261/5 149/302/5 150/304/5
f 128/259/5 148/300/5 149/302/5
f 127/257/34 147/298/34 148/300/34
f 126/255/35 146/296/35 147/298/35
f 125/253/36 145/294/36 146/296/36
f 124/251/37 144/292/37 145/294/37
f 123/249/38 143/290/38 144/292/38
f 122/247/39 142/288/39 143/290/39
f 121/245/40 141/286/40 142/288/40
f 141/286/41 119/241/41 140/283/41
f 119/241/42 139/282/42 140/283/42
f 118/239/43 138/280/43 139/282/43
f 117/237/44 137/278/44 138/280/44
f 116/235/45 136/276/45 137/278/45
f 115/233/46 135/274/46 136/276/46
f 114/231/2 157/317/2 156/316/2
f 115/234/2 158/319/2 157/317/2
f 116/236/2 159/321/2 158/319/2
f 117/238/2 160/323/2 159/321/2
f 118/240/2 161/325/2 160/323/2
f 119/242/2 162/327/2 161/325/2
f 121/246/2 162/327/2 120/244/2
f 122/248/2 163/329/2 121/246/2
f 123/250/2 164/331/2 122/248/2
f 123/250/2 166/335/2 165/333/2
f 125/254/2 166/335/2 124/252/2
f 126/256/2 167/337/2 125/254/2
f 127/258/2 168/339/2 126/256/2
f 128/260/2 169/341/2 127/258/2
f 129/262/2 170/343/2 128/260/2
f 130/264/2 171/345/2 129/262/2
f 131/266/2 172/347/2 130/264/2
f 132/268/2 173/349/2 131/266/2
f 133/270/2 174/351/2 132/268/2
f 134/272/2 175/353/2 133/270/2
f 156/315/47 94/192/47 93/190/47
f 157/318/48 95/194/48 94/192/48
f 158/320/49 96/196/49 95/194/49
f 159/322/50 97/198/50 96/196/50
f 160/324/51 98/200/51 97/198/51
f 161/326/52 99/202/52 98/200/52
f 162/328/53 100/204/53 99/202/53
f 163/330/54 101/206/54 100/204/54
f 164/332/55 102/208/55 101/206/55
f 102/208/56 166/336/56 103/209/56
f 166/336/57 104/212/57 103/209/57
f 167/338/58 105/214/58 104/212/58
f 168/340/59 106/216/59 105/214/59
f 169/342/1 107/218/1 106/216/1
f 170/344/1 108/220/1 107/218/1
f 171/346/1 109/222/1 108/220/1
f 172/348/1 110/224/1 109/222/1
f 173/350/1 111/226/1 110/224/1
f 174/352/1 112/228/1 111/226/1
f 175/354/1 113/230/1 112/228/1
f 114/232/60 93/190/60 135/274/60
f 25/52/1 1/1/1 3/5/1
f 88/177/2 3/6/2 4/10/2
f 3/7/3 1/2/3 2/3/3
f 1/2/4 25/51/4 67/135/4
f 25/51/4 24/49/4 66/133/4
f 24/49/4 23/47/4 65/131/4
f 23/47/4 22/45/4 64/129/4
f 22/45/4 21/43/4 63/127/4
f 21/43/4 20/41/4 62/125/4
f 20/41/4 19/39/4 61/123/4
f 19/39/4 18/37/4 60/121/4
f 60/121/4 18/37/4 17/35/4
f 59/119/4 17/35/4 16/33/4
f 58/117/4 16/33/4 15/31/4
f 15/31/4 14/29/4 56/113/4
f 56/113/4 14/29/4 13/27/4
f 55/111/4 13/27/4 12/25/4
f 54/109/4 12/25/4 11/23/4
f 11/23/4 10/21/4 52/105/4
f 10/21/4 9/19/4 51/103/4
f 9/19/4 8/17/4 50/101/4
f 8/17/4 7/15/4 49/99/4
f 7/15/4 6/13/4 48/97/4
f 6/13/4 5/11/4 47/95/4
f 2/4/5 67/136/5 46/93/5
f 66/134/5 45/91/5 46/93/5
f 65/132/5 44/89/5 45/91/5
f 64/130/5 43/87/5 44/89/5
f 63/128/5 42/85/5 43/87/5
f 62/126/5 41/83/5 42/85/5
f 61/124/5 40/81/5 41/83/5
f 60/122/5 39/79/5 40/81/5
f 59/120/6 38/77/6 39/79/6
f 58/118/7 37/75/7 38/77/7
f 57/116/8 36/74/8 37/75/8
f 56/114/9 35/71/9 36/74/9
f 55/112/10 34/69/10 35/71/10
f 54/110/11 33/67/11 34/69/11
f 53/108/12 32/66/12 33/67/12
f 53/108/13 52/106/13 31/63/13
f 51/104/14 30/61/14 31/63/14
f 50/102/15 29/59/15 30/61/15
f 49/100/16 28/57/16 29/59/16
f 48/98/17 27/55/17 28/57/17
f 47/96/18 26/54/18 27/55/18
f 26/53/2 68/138/2 69/139/2
f 27/56/2 69/139/2 70/141/2
f 28/58/2 70/141/2 71/143/2
f 29/60/2 71/143/2 72/145/2
f 30/62/2 72/145/2 73/147/2
f 31/64/2 73/147/2 74/149/2
f 74/149/2 75/151/2 33/68/2
f 75/151/2 76/153/2 34/70/2
f 76/153/2 77/155/2 35/72/2
f 35/72/2 77/155/2 78/157/2
f 78/157/2 79/159/2 37/76/2
f 79/159/2 80/161/2 38/78/2
f 80/161/2 81/163/2 39/80/2
f 81/163/2 82/165/2 40/82/2
f 82/165/2 83/167/2 41/84/2
f 83/167/2 84/169/2 42/86/2
f 84/169/2 85/171/2 43/88/2
f 85/171/2 86/173/2 44/90/2
f 86/173/2 87/175/2 45/92/2
f 87/175/2 88/177/2 46/94/2
f 6/14/19 69/140/19 68/137/19
f 7/16/20 70/142/20 69/140/20
f 8/18/21 71/144/21 70/142/21
f 9/20/22 72/146/22 71/144/22
f 10/22/23 73/148/23 72/146/23
f 11/24/24 74/150/24 73/148/24
f 12/26/25 75/152/25 74/150/25
f 13/28/26 76/154/26 75/152/26
f 14/30/27 77/156/27 76/154/27
f 14/30/28 15/32/28 78/158/28
f 16/34/29 79/160/29 78/158/29
f 17/36/30 80/162/30 79/160/30
f 18/38/31 81/164/31 80/162/31
f 19/40/1 82/166/1 81/164/1
f 20/42/1 83/168/1 82/166/1
f 21/44/1 84/170/1 83/168/1
f 22/46/1 85/172/1 84/170/1
f 23/48/1 86/174/1 85/172/1
f 24/50/1 87/176/1 86/174/1
f 25/52/1 88/178/1 87/176/1
f 5/12/32 68/138/32 26/54/32
f 113/230/1 176/356/1 91/183/1
f 92/187/2 91/184/2 176/355/2
f 90/181/33 89/180/33 91/185/33
f 155/314/4 113/229/4 89/180/4
f 154/311/4 112/227/4 113/229/4
f 153/309/4 111/225/4 112/227/4
f 152/307/4 110/223/4 111/225/4
f 151/305/4 109/221/4 110/223/4
f 150/303/4 108/219/4 109/221/4
f 149/301/4 107/217/4 108/219/4
f 148/299/4 106/215/4 107/217/4
f 148/299/4 147/297/4 105/213/4
f 147/297/4 146/295/4 104/211/4
f 146/295/4 145/293/4 103/210/4
f 144/291/4 102/207/4 103/210/4
f 144/291/4 143/289/4 101/205/4
f 143/289/4 142/287/4 100/203/4
f 142/287/4 141/285/4 99/201/4
f 140/284/4 98/199/4 99/201/4
f 139/281/4 97/197/4 98/199/4
f 138/279/4 96/195/4 97/197/4
f 137/277/4 95/193/4 96/195/4
f 136/275/4 94/191/4 95/193/4
f 135/273/4 93/189/4 94/191/4
f 90/182/5 92/188/5 134/271/5
f 134/271/5 133/269/5 154/312/5
f 133/269/5 132/267/5 153/310/5
f 132/267/5 131/265/5 152/308/5
f 131/265/5 130/263/5 151/306/5
f 130/263/5 129/261/5 150/304/5
f 129/261/5 128/259/5 149/302/5
f 128/259/5 127/257/5 148/300/5
f 127/257/34 126/255/34 147/298/34
f 126/255/35 125/253/35 146/296/35
f 125/253/36 124/251/36 145/294/36
f 124/251/37 123/249/37 144/292/37
f 123/249/38 122/247/38 143/290/38
f 122/247/39 121/245/39 142/288/39
f 121/245/40 120/243/40 141/286/40
f 141/286/41 120/243/41 119/241/41
f 119/241/42 118/239/42 139/282/42
f 118/239/43 117/237/43 138/280/43
f 117/237/44 116/235/44 137/278/44
f 116/235/45 115/233/45 136/276/45
f 115/233/46 114/232/46 135/274/46
f 114/231/2 115/234/2 157/317/2
f 115/234/2 116/236/2 158/319/2
f 116/236/2 117/238/2 159/321/2
f 117/238/2 118/240/2 160/323/2
f 118/240/2 119/242/2 161/325/2
f 119/242/2 120/244/2 162/327/2
f 121/246/2 163/329/2 162/327/2
f 122/248/2 164/331/2 163/329/2
f 123/250/2 165/333/2 164/331/2
f 123/250/2 124/252/2 166/335/2
f 125/254/2 167/337/2 166/335/2
f 126/256/2 168/339/2 167/337/2
f 127/258/2 169/341/2 168/339/2
f 128/260/2 170/343/2 169/341/2
f 129/262/2 171/345/2 170/343/2
f 130/264/2 172/347/2 171/345/2
f 131/266/2 173/349/2 172/347/2
f 132/268/2 174/351/2 173/349/2
f 133/270/2 175/353/2 174/351/2
f 134/272/2 176/355/2 175/353/2
f 156/315/47 157/318/47 94/192/47
f 157/318/48 158/320/48 95/194/48
f 158/320/49 159/322/49 96/196/49
f 159/322/50 160/324/50 97/198/50
f 160/324/51 161/326/51 98/200/51
f 161/326/52 162/328/52 99/202/52
f 162/328/53 163/330/53 100/204/53
f 163/330/54 164/332/54 101/206/54
f 164/332/55 165/334/55 102/208/55
f 102/208/56 165/334/56 166/336/56
f 166/336/57 167/338/57 104/212/57
f 167/338/58 168/340/58 105/214/58
f 168/340/59 169/342/59 106/216/59
f 169/342/1 170/344/1 107/218/1
f 170/344/1 171/346/1 108/220/1
f 171/346/1 172/348/1 109/222/1
f 172/348/1 173/350/1 110/224/1
f 173/350/1 174/352/1 111/226/1
f 174/352/1 175/354/1 112/228/1
f 175/354/1 176/356/1 113/230/1
f 114/232/60 156/316/60 93/190/60
